PathFileType	4	(X/Y/Z)	/Users/itak/Documents/Research/Walk-IL/dataset/trc/00471_00167.trc
DataRate	CameraRate	NumFrames	NumMarkers	Units	OrigDataRate	OrigDataStartFrame	OrigNumFrames
100.000000	100.000000	4	53	mm	100.000000	156	626
Frame#	Time	RPSI			LPSI			L3			STRN			T10			C7			CLAV			RBAK			LBAK			LSHO			LUPA			LAEL			LAOL			LWTS			LWPS			LFRA			LIFD			LHPS			LHTS			RSHO			RUPA			RAEL			RAOL			RWTS			RWPS			RFRA			RIFD			RHTS			RHPS			RBHD			LFHD			RFHD			LBHD			LHIP			RHIP			RASI			LASI			LKNE			LTHI			LANK			LTIP			LTOE			LMT1			LMT5			LHEE			RKNE			RTHI			RANK			RTIP			RTOE			RMT1			RMT5			RHEE			
		X1	Y1	Z1	X2	Y2	Z2	X3	Y3	Z3	X4	Y4	Z4	X5	Y5	Z5	X6	Y6	Z6	X7	Y7	Z7	X8	Y8	Z8	X9	Y9	Z9	X10	Y10	Z10	X11	Y11	Z11	X12	Y12	Z12	X13	Y13	Z13	X14	Y14	Z14	X15	Y15	Z15	X16	Y16	Z16	X17	Y17	Z17	X18	Y18	Z18	X19	Y19	Z19	X20	Y20	Z20	X21	Y21	Z21	X22	Y22	Z22	X23	Y23	Z23	X24	Y24	Z24	X25	Y25	Z25	X26	Y26	Z26	X27	Y27	Z27	X28	Y28	Z28	X29	Y29	Z29	X30	Y30	Z30	X31	Y31	Z31	X32	Y32	Z32	X33	Y33	Z33	X34	Y34	Z34	X35	Y35	Z35	X36	Y36	Z36	X37	Y37	Z37	X38	Y38	Z38	X39	Y39	Z39	X40	Y40	Z40	X41	Y41	Z41	X42	Y42	Z42	X43	Y43	Z43	X44	Y44	Z44	X45	Y45	Z45	X46	Y46	Z46	X47	Y47	Z47	X48	Y48	Z48	X49	Y49	Z49	X50	Y50	Z50	X51	Y51	Z51	X52	Y52	Z52	X53	Y53	Z53	

157	1.56	-1219.548217773438	949.8145141601562	-374.9999084472656	-1189.077026367188	949.1351318359375	-514.7256469726562	-1187.31494140625	1044.26220703125	-423.8435974121094	-911.7504272460938	1236.643798828125	-380.6202392578125	-1199.0703125	1169.156005859375	-427.0227661132812	-1129.1455078125	1435.970703125	-403.6164855957031	-946.167236328125	1349.439453125	-390.7403564453125	-1207.54296875	1319.033081054688	-318.7070007324219	-1150.2265625	1387.007202148438	-506.5497741699219	-1037.7138671875	1405.988159179688	-569.6891479492188	-1035.526123046875	1290.63818359375	-669.40673828125	-1010.714721679688	1078.457397460938	-708.620361328125	-1093.893432617188	1066.572631835938	-648.5128784179688	-950.1607666015625	866.8645629882812	-683.7505493164062	-996.3336791992188	862.0350341796875	-742.1253051757812	-996.9558715820312	991.138916015625	-725.4883422851562	-953.50439453125	711.3193359375	-716.7178955078125	-993.6010131835938	786.0155029296875	-752.8782348632812	-938.339599609375	783.842529296875	-704.428466796875	-1084.307861328125	1406.479125976562	-234.7066802978516	-1112.960327148438	1346.420166015625	-161.3336029052734	-1117.663452148438	1056.422973632812	-113.4888916015625	-1167.671264648438	1045.241455078125	-157.6624298095703	-1032.23779296875	846.4090576171875	-158.4372253417969	-1102.26806640625	831.74853515625	-105.647331237793	-1119.307373046875	997.8958129882812	-105.7250900268555	-1033.011962890625	691.3604125976562	-160.0535736083984	-1018.212036132812	750.0261840820312	-154.6112670898438	-1088.534912109375	743.5288696289062	-115.9669342041016	-1036.716796875	1634.127685546875	-308.88818359375	-891.61376953125	1637.584106445312	-456.6570129394531	-899.5455932617188	1639.295166015625	-326.2060241699219	-1041.66357421875	1637.826171875	-486.4035949707031	-1026.60400390625	846.3942260742188	-601.2652587890625	-1134.057495117188	839.4295043945312	-217.4584045410156	-1020.672424316406	882.7431640625	-254.1911315917969	-954.1226196289062	885.531005859375	-500.4451293945312	-969.0525512695312	430.1723327636719	-584.1914672851562	-950.8678588867188	588.512939453125	-584.613037109375	-1191.977172851562	65.62164306640625	-644.1365966796875	-1039.19921875	291.1408386230469	-621.6158447265625	-979.1143798828125	44.02515411376953	-543.31201171875	-1054.129638671875	53.95802307128906	-525.8424682617188	-1041.552001953125	47.86926651000977	-637.259033203125	-1243.817504882812	77.98597717285156	-585.8124389648438	-1080.905639648438	448.0690307617188	-255.5190277099609	-1085.413452148438	704.9661865234375	-205.8264007568359	-1224.011840820312	46.68610000610352	-271.8817443847656	-1105.60205078125	302.0775451660156	-253.5732727050781	-1007.170959472656	49.79788589477539	-304.6537780761719	-1066.253051757812	48.89374160766602	-347.7190551757812	-1093.45751953125	53.43747329711914	-243.0835113525391	-1287.648193359375	37.1268424987793	-320.1236572265625	
158	1.57	-1218.156372070312	949.1043701171875	-372.935546875	-1188.694458007812	946.9535522460938	-512.981689453125	-1185.716430664062	1043.934936523438	-421.4201965332031	-908.87890625	1235.273071289062	-378.7194519042969	-1196.350463867188	1168.75	-424.1574096679688	-1125.635498046875	1435.390502929688	-400.7300415039062	-942.8285522460938	1348.233032226562	-388.4512939453125	-1204.01318359375	1318.545043945312	-315.7659606933594	-1147.263305664062	1386.652587890625	-503.6295776367188	-1034.84375	1405.36767578125	-567.049560546875	-1033.443237304688	1290.107421875	-666.7711181640625	-1009.05224609375	1078.0400390625	-706.58447265625	-1091.908203125	1066.010620117188	-646.02587890625	-947.8204956054688	866.677001953125	-682.0433959960938	-994.392822265625	861.6263427734375	-740.1083984375	-995.220947265625	990.7342529296875	-723.5224609375	-950.8616333007812	711.083251953125	-714.8796997070312	-991.4536743164062	785.6243896484375	-750.8417358398438	-936.2098388671875	783.576171875	-702.8109130859375	-1080.421508789062	1405.65234375	-232.0400848388672	-1109.178588867188	1345.63720703125	-158.6215362548828	-1114.584228515625	1055.553833007812	-110.8255310058594	-1164.68212890625	1044.494750976562	-154.9221649169922	-1029.474609375	845.463134765625	-156.5461120605469	-1099.19677734375	830.8876342773438	-103.3229675292969	-1116.260986328125	997.0432739257812	-103.1100463867188	-1030.864624023438	690.3787231445312	-158.7325134277344	-1015.766662597656	749.0090942382812	-153.1380920410156	-1085.844848632812	742.6371459960938	-114.0140151977539	-1033.725341796875	1633.533081054688	-306.36376953125	-888.8286743164062	1637.21240234375	-454.3023376464844	-896.656982421875	1639.291625976562	-323.857421875	-1038.834716796875	1636.634521484375	-483.89892578125	-1025.168579101562	845.005859375	-600.2086181640625	-1131.579711914062	838.7803344726562	-216.0351257324219	-1018.416015625	881.776123046875	-253.3170166015625	-953.6387939453125	884.8539428710938	-499.6463012695312	-955.2529907226562	431.2085266113281	-580.9823608398438	-940.1292724609375	589.7432250976562	-581.4417114257812	-1189.413940429688	73.36947631835938	-641.9892578125	-1029.469604492188	293.735107421875	-618.875244140625	-977.1292724609375	43.97623062133789	-543.2284545898438	-1051.378540039062	55.47808074951172	-524.7784423828125	-1040.248291015625	49.87632751464844	-636.0579223632812	-1240.180419921875	87.33689880371094	-583.1712036132812	-1079.307861328125	447.3562622070312	-254.8928527832031	-1082.852905273438	704.259033203125	-204.7507934570312	-1224.075439453125	46.61798095703125	-271.8450622558594	-1104.685180664062	301.4306335449219	-253.2101898193359	-1007.250061035156	49.72803115844727	-304.5517272949219	-1066.304077148438	48.85530090332031	-347.7201538085938	-1093.431396484375	53.31523132324219	-242.9992980957031	-1287.711059570312	37.03794097900391	-320.10791015625	
159	1.58	-1216.673950195312	948.3167724609375	-370.9451904296875	-1188.15283203125	944.8421630859375	-511.2738647460938	-1184.175170898438	1043.723876953125	-419.0391235351562	-905.8397827148438	1233.891479492188	-377.0546264648438	-1193.504272460938	1168.491333007812	-421.3589477539062	-1121.856079101562	1434.893310546875	-397.941162109375	-939.30810546875	1346.991455078125	-386.3429565429688	-1200.275390625	1318.15478515625	-312.9106140136719	-1144.062133789062	1386.4130859375	-500.8132629394531	-1031.722045898438	1404.76025390625	-564.5751342773438	-1031.184814453125	1289.5234375	-664.2617797851562	-1007.322082519531	1077.561279296875	-704.6339721679688	-1089.877685546875	1065.43359375	-643.63134765625	-945.4744873046875	866.4497680664062	-680.3377075195312	-992.4424438476562	861.150390625	-738.0908813476562	-993.4501342773438	990.25732421875	-721.6097412109375	-948.1766967773438	710.8196411132812	-713.0001220703125	-989.3084106445312	785.1704711914062	-748.79248046875	-933.9974975585938	783.2977905273438	-701.1708374023438	-1076.216918945312	1404.776000976562	-229.4670867919922	-1105.050170898438	1344.765625	-156.0179595947266	-1111.306884765625	1054.654052734375	-108.171257019043	-1161.500366210938	1043.704223632812	-152.1635131835938	-1026.512573242188	844.5098876953125	-154.5034484863281	-1095.980224609375	830.0263671875	-100.9191818237305	-1113.01025390625	996.1648559570312	-100.4976577758789	-1028.45166015625	689.3990478515625	-157.1066589355469	-1013.142578125	747.9857788085938	-151.3507995605469	-1082.957275390625	741.7429809570312	-111.887580871582	-1030.606567382812	1632.928588867188	-303.9002075195312	-885.8902587890625	1637.022827148438	-451.9743041992188	-893.6592407226562	1639.48046875	-321.5458679199219	-1035.858642578125	1635.383666992188	-481.4579467773438	-1023.542297363281	844.0300903320312	-599.3599243164062	-1129.010620117188	838.11376953125	-214.7051391601562	-1016.029235839844	880.8148803710938	-252.5602264404297	-953.046875	884.3739624023438	-499.0171203613281	-941.4134521484375	432.915771484375	-577.72119140625	-929.5908813476562	591.58837890625	-578.6589965820312	-1185.924926757812	81.56242370605469	-639.5345458984375	-1019.202758789062	296.866455078125	-615.8443603515625	-974.4755859375	44.45666122436523	-542.6281127929688	-1047.966674804688	57.52035522460938	-523.2310180664062	-1038.137939453125	52.43929290771484	-634.3926391601562	-1235.682983398438	97.08469390869141	-580.3413696289062	-1077.791259765625	446.6792602539062	-254.3266296386719	-1080.219604492188	703.5406494140625	-203.75830078125	-1224.122436523438	46.57593154907227	-271.838623046875	-1103.841064453125	300.8522338867188	-252.8767395019531	-1007.311706542969	49.65762710571289	-304.4440307617188	-1066.333740234375	48.81625366210938	-347.7135009765625	-1093.397827148438	53.21300506591797	-242.9278564453125	-1287.742553710938	36.98335266113281	-320.1387023925781	
160	1.59	-1215.021850585938	947.54443359375	-369.0442810058594	-1187.317504882812	942.9967041015625	-509.6065063476562	-1182.643432617188	1043.662475585938	-416.7124328613281	-902.609130859375	1232.55859375	-375.6084594726562	-1190.51708984375	1168.408081054688	-418.6597900390625	-1117.823974609375	1434.497802734375	-395.2591552734375	-935.6000366210938	1345.776123046875	-384.4166564941406	-1196.338989257812	1317.88525390625	-310.1432189941406	-1140.6318359375	1386.305908203125	-498.114013671875	-1028.361450195312	1404.2001953125	-562.270263671875	-1028.735229492188	1288.931640625	-661.8922729492188	-1005.503723144531	1077.05810546875	-702.760498046875	-1087.787963867188	1064.88671875	-641.3363647460938	-943.149169921875	866.1939697265625	-678.6222534179688	-990.4874267578125	860.6414184570312	-736.0743408203125	-991.6295776367188	989.7432861328125	-719.7423706054688	-945.4859008789062	710.5517578125	-711.0845947265625	-987.1854248046875	784.6893920898438	-746.7364501953125	-931.733154296875	783.0323486328125	-699.5015258789062	-1071.708618164062	1403.889526367188	-226.99560546875	-1100.574951171875	1343.838745117188	-153.5327606201172	-1107.7900390625	1053.762817382812	-105.5647430419922	-1158.09326171875	1042.91259765625	-149.4202575683594	-1023.37744140625	843.5640258789062	-152.3300933837891	-1092.638549804688	829.205810546875	-98.45864105224609	-1109.52978515625	995.3002319335938	-97.91535949707031	-1025.793090820312	688.4420776367188	-155.1392822265625	-1010.356018066406	746.9744262695312	-149.2317047119141	-1079.8974609375	740.8875732421875	-109.5732955932617	-1027.341796875	1632.32568359375	-301.5222778320312	-882.7755737304688	1637.006225585938	-449.6920471191406	-890.5265502929688	1639.845336914062	-319.2879638671875	-1032.71728515625	1634.104736328125	-479.1008605957031	-1021.639465332031	843.51953125	-598.663818359375	-1126.3701171875	837.4659423828125	-213.4754943847656	-1013.507995605469	879.9008178710938	-251.8430023193359	-952.2412109375	884.1610717773438	-498.46435546875	-927.658935546875	435.2188415527344	-574.4652099609375	-919.367431640625	593.9762573242188	-576.28759765625	-1181.298461914062	89.77208709716797	-636.7386474609375	-1008.450927734375	300.3695373535156	-612.58251953125	-970.8444213867188	45.57574462890625	-541.3161010742188	-1043.661010742188	60.11394882202148	-521.099853515625	-1034.89111328125	55.48884963989258	-632.1788940429688	-1230.177368164062	106.7215728759766	-577.3007202148438	-1076.412963867188	446.0588073730469	-253.8166046142578	-1077.591674804688	702.837646484375	-202.8403472900391	-1224.156860351562	46.55397033691406	-271.8523864746094	-1103.099365234375	300.3556823730469	-252.5686645507812	-1007.356750488281	49.5919189453125	-304.3480529785156	-1066.348510742188	48.77634811401367	-347.6985473632812	-1093.36328125	53.13120651245117	-242.8710327148438	-1287.756591796875	36.95921325683594	-320.1928100585938	
